<svg xmlns="http://www.w3.org/2000/svg" viewBox="0 0 32 32">
  <circle cx="16" cy="16" r="16" fill="#1DB954"/>
  <path d="M23 14.5c-3.9-2.3-10.3-2.5-14-1.4-.6.2-1.2-.1-1.4-.7-.2-.6.1-1.2.7-1.4 4.3-1.3 11.3-1 15.7 1.6.5.3.7 1 .4 1.5-.3.5-1 .7-1.4.4zm-.3 3.4c-.3.4-.8.6-1.2.3-3.2-2-8.2-2.6-12-1.4-.5.1-1-.1-1.2-.6-.1-.5.1-1 .6-1.2 4.4-1.3 9.8-.7 13.5 1.6.4.3.5.9.3 1.3zm-1.4 3.3c-.2.4-.7.5-1 .3-2.8-1.7-6.4-2.1-10.5-1.1-.4.1-.8-.1-.9-.5-.1-.4.1-.8.5-.9 4.6-1.1 8.5-.6 11.6 1.3.4.2.5.6.3.9z" fill="white"/>
</svg>
